<svg width="100%" height="100%" viewBox="0 0 260 190" fill="none" xmlns="http://www.w3.org/2000/svg">
<mask id="mask0_2_42" style="mask-type:luminance" maskUnits="userSpaceOnUse" x="57" y="0" width="146" height="113">
<path d="M57.2708 0.260437H202.271V112.219H57.2708V0.260437Z" fill="white"/>
</mask>
<g mask="url(#mask0_2_42)">
<path fill-rule="evenodd" clip-rule="evenodd" d="M192.703 45.7969V33.5938C192.703 28.5156 188.547 24.3594 183.469 24.3594H100.677L159.938 17.8906V7.14064C159.938 5.02085 159.021 3.19793 157.323 1.93752C155.62 0.671892 153.615 0.317725 151.583 0.932309L78.3542 22.9688C75.5677 23.8073 73.7396 26.2709 73.7396 29.1771V50.0781H98.6198C102.885 50.0781 106.37 53.5677 106.37 57.8281C106.37 62.0938 102.88 65.5834 98.6198 65.5834H65.0208C60.7604 65.5834 57.2708 69.0729 57.2708 73.3334C57.2708 77.599 60.7604 81.0834 65.0208 81.0834H120.521C124.786 81.0834 128.271 84.5729 128.271 88.8386C128.271 93.099 124.781 96.5886 120.521 96.5886H97.9427C93.6823 96.5886 90.1927 100.078 90.1927 104.339C90.1927 108.604 93.6823 112.089 97.9427 112.089H183.464C188.547 112.089 192.703 107.932 192.703 102.854V90.6511H175.573C174.057 90.6511 172.823 89.4167 172.823 87.9011C172.823 86.3906 174.057 85.1563 175.573 85.1563H197.49C200.375 85.1563 202.729 82.8021 202.729 79.9167V56.5313C202.729 53.6459 200.375 51.2917 197.49 51.2917H166.073C164.562 51.2917 163.323 50.0573 163.323 48.5469C163.323 47.0313 164.557 45.7969 166.073 45.7969H192.703ZM165.234 63.4167C162.578 63.4167 160.427 65.5729 160.427 68.2292C160.427 70.8854 162.578 73.0365 165.234 73.0365C167.896 73.0365 170.047 70.8854 170.047 68.2292C170.047 65.5677 167.896 63.4167 165.234 63.4167ZM153.802 68.224C153.802 61.9375 158.948 56.7917 165.234 56.7917H197.234V79.6615H165.234C158.948 79.6615 153.802 74.5156 153.802 68.224Z" fill="#8C52FF"/>
</g>
<path d="M19.4663 189.97C16.4767 189.97 13.784 189.512 11.383 188.595C8.99233 187.668 6.95066 186.335 5.25795 184.595C3.56004 182.845 2.26316 180.699 1.36212 178.157C0.471494 175.616 0.0287857 172.699 0.0287857 169.407C0.0287857 166.116 0.471494 163.199 1.36212 160.657C2.26316 158.116 3.56004 155.97 5.25795 154.22C6.95066 152.47 8.99233 151.137 11.383 150.22C13.784 149.293 16.4767 148.824 19.4663 148.824C22.3517 148.824 24.9715 149.314 27.3205 150.282C29.6642 151.256 31.6746 152.631 33.3413 154.407C35.008 156.173 36.284 158.272 37.1746 160.699C38.0757 163.116 38.5288 165.772 38.5288 168.657C38.5288 169.199 38.4975 169.72 38.4455 170.22C38.4038 170.72 38.3621 171.173 38.3205 171.574C38.2632 172.022 38.2163 172.418 38.1746 172.762H10.8621C11.2632 175.012 12.1382 176.887 13.4871 178.387C14.8309 179.876 16.8257 180.616 19.4663 180.616C21.508 180.616 23.0132 180.282 23.9871 179.616C24.9559 178.939 25.8205 178.027 26.5705 176.887H37.7996C37.3413 178.585 36.6434 180.215 35.7163 181.782C34.7996 183.355 33.6017 184.751 32.133 185.97C30.6746 187.194 28.8934 188.168 26.7996 188.887C24.7007 189.605 22.258 189.97 19.4663 189.97ZM27.6955 164.907C27.4975 164.064 27.185 163.241 26.758 162.449C26.3413 161.647 25.7892 160.923 25.1121 160.282C24.4455 159.631 23.633 159.116 22.6746 158.741C21.7267 158.366 20.659 158.178 19.4663 158.178C17.0184 158.178 15.1121 158.835 13.7371 160.137C12.3725 161.428 11.4142 163.022 10.8621 164.907H27.6955Z" fill="#EFEFEF"/>
<path d="M48.4717 168.657L36.5134 149.574H48.0967L55.2009 161.928L62.3259 149.574H73.9092L61.9509 168.657L74.6592 189.22H63.0551L55.2009 175.762L47.3676 189.22H35.7634L48.4717 168.657Z" fill="#EFEFEF"/>
<path d="M69.6416 149.574H80.475L87.225 176.137H87.6L94.3291 149.574H105.162L111.892 176.137H112.267L118.996 149.574H129.1L118.246 189.22H106.662L99.9333 164.157H99.5583L92.8291 189.22H80.475L69.6416 149.574Z" fill="#EFEFEF"/>
<path d="M140.911 189.97C138.755 189.97 136.818 189.657 135.099 189.032C133.391 188.407 131.932 187.548 130.724 186.449C129.526 185.355 128.62 184.064 127.995 182.574C127.38 181.074 127.078 179.428 127.078 177.637C127.078 175.835 127.396 174.189 128.036 172.699C128.688 171.199 129.661 169.902 130.953 168.803C132.255 167.71 133.854 166.845 135.745 166.22C137.646 165.595 139.87 165.282 142.411 165.282H151.745V163.407C151.745 161.522 151.146 160.116 149.953 159.199C148.755 158.272 147.109 157.803 145.016 157.803C143.526 157.803 142.255 158.131 141.203 158.782C140.161 159.439 139.438 160.236 139.036 161.178H128.557C128.917 159.585 129.526 158.048 130.391 156.574C131.266 155.105 132.391 153.798 133.766 152.657C135.141 151.506 136.786 150.585 138.703 149.887C140.62 149.178 142.849 148.824 145.391 148.824C150.682 148.824 154.807 150.105 157.766 152.657C160.734 155.199 162.224 158.907 162.224 163.782V189.22H153.245L152.12 184.741H151.745C151.354 185.282 150.859 185.866 150.266 186.491C149.667 187.116 148.917 187.694 148.016 188.22C147.109 188.736 146.078 189.152 144.911 189.47C143.745 189.803 142.411 189.97 140.911 189.97ZM143.516 181.366C145.958 181.366 147.938 180.689 149.453 179.324C150.979 177.949 151.745 176.137 151.745 173.887V172.762H142.786C140.88 172.762 139.526 173.168 138.724 173.97C137.932 174.762 137.536 175.736 137.536 176.887C137.536 178.178 138.005 179.251 138.953 180.095C139.911 180.944 141.432 181.366 143.516 181.366Z" fill="#EFEFEF"/>
<path d="M166.549 136.866H177.028V189.22H166.549V136.866Z" fill="#EFEFEF"/>
<path d="M182.102 136.866H192.581V189.22H182.102V136.866Z" fill="#EFEFEF"/>
<path d="M214.864 189.97C211.874 189.97 209.182 189.512 206.781 188.595C204.39 187.668 202.348 186.335 200.656 184.595C198.958 182.845 197.661 180.699 196.76 178.157C195.869 175.616 195.426 172.699 195.426 169.407C195.426 166.116 195.869 163.199 196.76 160.657C197.661 158.116 198.958 155.97 200.656 154.22C202.348 152.47 204.39 151.137 206.781 150.22C209.182 149.293 211.874 148.824 214.864 148.824C217.749 148.824 220.369 149.314 222.718 150.282C225.062 151.256 227.072 152.631 228.739 154.407C230.406 156.173 231.682 158.272 232.572 160.699C233.473 163.116 233.926 165.772 233.926 168.657C233.926 169.199 233.895 169.72 233.843 170.22C233.801 170.72 233.76 171.173 233.718 171.574C233.661 172.022 233.614 172.418 233.572 172.762H206.26C206.661 175.012 207.536 176.887 208.885 178.387C210.229 179.876 212.223 180.616 214.864 180.616C216.906 180.616 218.411 180.282 219.385 179.616C220.354 178.939 221.218 178.027 221.968 176.887H233.197C232.739 178.585 232.041 180.215 231.114 181.782C230.197 183.355 228.999 184.751 227.531 185.97C226.072 187.194 224.291 188.168 222.197 188.887C220.098 189.605 217.656 189.97 214.864 189.97ZM223.093 164.907C222.895 164.064 222.583 163.241 222.156 162.449C221.739 161.647 221.187 160.923 220.51 160.282C219.843 159.631 219.031 159.116 218.072 158.741C217.124 158.366 216.057 158.178 214.864 158.178C212.416 158.178 210.51 158.835 209.135 160.137C207.77 161.428 206.812 163.022 206.26 164.907H223.093Z" fill="#EFEFEF"/>
<path d="M252.099 189.22C247.958 189.22 244.869 188.23 242.828 186.241C240.786 184.241 239.765 181.376 239.765 177.637V159.303H233.411V149.574H239.765L241.265 139.116H250.244V149.574H259.578V159.303H250.244V175.762C250.244 176.902 250.578 177.814 251.244 178.491C251.911 179.158 252.817 179.491 253.974 179.491H259.578V189.22H252.099Z" fill="#EFEFEF"/>
</svg>
