<svg width="146" height="113" viewBox="0 0 146 113" fill="none" xmlns="http://www.w3.org/2000/svg">
<mask id="mask0_2_7" style="mask-type:luminance" maskUnits="userSpaceOnUse" x="0" y="0" width="146" height="113">
<path d="M0.270828 0.260437H145.271V112.219H0.270828V0.260437Z" fill="white"/>
</mask>
<g mask="url(#mask0_2_7)">
<path fill-rule="evenodd" clip-rule="evenodd" d="M135.703 45.7969V33.5938C135.703 28.5156 131.547 24.3594 126.469 24.3594H43.6771L102.938 17.8906V7.14064C102.938 5.02085 102.021 3.19793 100.323 1.93752C98.6198 0.671892 96.6146 0.317725 94.5833 0.932309L21.3542 22.9688C18.5677 23.8073 16.7396 26.2709 16.7396 29.1771V50.0781H41.6198C45.8854 50.0781 49.3698 53.5677 49.3698 57.8281C49.3698 62.0938 45.8802 65.5834 41.6198 65.5834H8.02083C3.76041 65.5834 0.270828 69.0729 0.270828 73.3334C0.270828 77.599 3.76041 81.0834 8.02083 81.0834H63.5208C67.7865 81.0834 71.2708 84.5729 71.2708 88.8386C71.2708 93.099 67.7812 96.5886 63.5208 96.5886H40.9427C36.6823 96.5886 33.1927 100.078 33.1927 104.339C33.1927 108.604 36.6823 112.089 40.9427 112.089H126.464C131.547 112.089 135.703 107.932 135.703 102.854V90.6511H118.573C117.057 90.6511 115.823 89.4167 115.823 87.9011C115.823 86.3906 117.057 85.1563 118.573 85.1563H140.49C143.375 85.1563 145.729 82.8021 145.729 79.9167V56.5313C145.729 53.6459 143.375 51.2917 140.49 51.2917H109.073C107.562 51.2917 106.323 50.0573 106.323 48.5469C106.323 47.0313 107.557 45.7969 109.073 45.7969H135.703ZM108.234 63.4167C105.578 63.4167 103.427 65.5729 103.427 68.2292C103.427 70.8854 105.578 73.0365 108.234 73.0365C110.896 73.0365 113.047 70.8854 113.047 68.2292C113.047 65.5677 110.896 63.4167 108.234 63.4167ZM96.8021 68.224C96.8021 61.9375 101.948 56.7917 108.234 56.7917H140.234V79.6615H108.234C101.948 79.6615 96.8021 74.5156 96.8021 68.224Z" fill="#8C52FF"/>
</g>
</svg>
